HIERARCHY
ROOT Hips
{
	OFFSET 0.00000 0.00000 0.00000
	CHANNELS 6 Xposition Yposition Zposition Zrotation Yrotation Xrotation 
	JOINT LHipJoint
	{
		OFFSET 0 0 0
		CHANNELS 3 Zrotation Yrotation Xrotation
		JOINT LeftHip
		{
			OFFSET 1.65674 -1.80282 0.62477
			CHANNELS 3 Zrotation Yrotation Xrotation
			JOINT LeftKnee
			{
				OFFSET 2.59720 -7.13576 0.00000
				CHANNELS 3 Zrotation Yrotation Xrotation
				JOINT LeftAnkle
				{
					OFFSET 2.49236 -6.84770 0.00000
					CHANNELS 3 Zrotation Yrotation Xrotation
					JOINT LeftToe
					{
						OFFSET 0.19704 -0.54136 2.14581
						CHANNELS 3 Zrotation Yrotation Xrotation
						End Site
						{
							OFFSET 0.00000 -0.00000 1.11249
						}
					}
				}
			}
		}
	}
	JOINT RHipJoint
	{
		OFFSET 0 0 0
		CHANNELS 3 Zrotation Yrotation Xrotation
		JOINT RightHip
		{
			OFFSET -1.61070 -1.80282 0.62476
			CHANNELS 3 Zrotation Yrotation Xrotation
			JOINT RightKnee
			{
				OFFSET -2.59502 -7.12977 0.00000
				CHANNELS 3 Zrotation Yrotation Xrotation
				JOINT RightAnkle
				{
					OFFSET -2.46780 -6.78024 0.00000
					CHANNELS 3 Zrotation Yrotation Xrotation
					JOINT RightToe
					{
						OFFSET -0.23024 -0.63258 2.13368
						CHANNELS 3 Zrotation Yrotation Xrotation
						End Site
						{
							OFFSET -0.00000 -0.00000 1.11569
						}
					}
				}
			}
		}
	}
	JOINT lowerback
	{
		OFFSET 0 0 0
		CHANNELS 3 Zrotation Yrotation Xrotation
		JOINT Chest
		{
			OFFSET 0.01961 2.05450 -0.14112
			CHANNELS 3 Zrotation Yrotation Xrotation
			JOINT Chest2
			{
				OFFSET 0.01021 2.06436 -0.05921
				CHANNELS 3 Zrotation Yrotation Xrotation
				JOINT lowerneck
				{
					OFFSET 0 0 0
					CHANNELS 3 Zrotation Yrotation Xrotation
					JOINT Neck
					{
						OFFSET 0.00713 1.56711 0.14968
						CHANNELS 3 Zrotation Yrotation Xrotation
						JOINT Head
						{
							OFFSET 0.03429 1.56041 -0.10006
							CHANNELS 3 Zrotation Yrotation Xrotation
							End Site
							{
								OFFSET 0.01305 1.62560 -0.05265
							}
						}
					}
				}
				JOINT LeftCollar
				{
					OFFSET 0 0 0
					CHANNELS 3 Zrotation Yrotation Xrotation
					JOINT LeftShoulder
					{
						OFFSET 3.54205 0.90436 -0.17364
CHANNELS 3 Zrotation Xrotation Yrotation
						JOINT LeftElbow
						{
OFFSET 0 -4.865130 -0.000000
CHANNELS 3 Zrotation Xrotation Yrotation
							JOINT LeftWrist
							{
OFFSET 0 -3.355540 0.000000
CHANNELS 3 Zrotation Xrotation Yrotation
								JOINT lhand
								{
									OFFSET 0 0 0
CHANNELS 3 Zrotation Xrotation Yrotation
									JOINT LFingers
									{
OFFSET 0 -0.661170 0.000000
CHANNELS 3 Zrotation Xrotation Yrotation
										End Site
										{
OFFSET 0 -0.533060 0.000000
										}
									}
								}
								JOINT LThumb
								{
OFFSET 0 0.000000 0.000000
CHANNELS 3 Zrotation Xrotation Yrotation
									End Site
									{
OFFSET 0 -0.541200 0.541200
									}
								}
							}
						}
					}
				}
				JOINT RightCollar
				{
					OFFSET 0 0 0
					CHANNELS 3 Zrotation Yrotation Xrotation
					JOINT RightShoulder
					{
						OFFSET -3.49802 0.75994 -0.32616
CHANNELS 3 Zrotation Xrotation Yrotation
						JOINT RightElbow
						{
OFFSET 0 -5.026490 0.000000
CHANNELS 3 Zrotation Xrotation Yrotation
							JOINT RightWrist
							{
OFFSET 0 -3.364310 0.000000
CHANNELS 3 Zrotation Xrotation Yrotation
								JOINT rhand
								{
									OFFSET 0 0 0
CHANNELS 3 Zrotation Xrotation Yrotation
									JOINT RFingers
									{
OFFSET 0 -0.730410 0.000000
CHANNELS 3 Zrotation Xrotation Yrotation
										End Site
										{
OFFSET 0 -0.588870 0.000000
										}
									}
								}
								JOINT RThumb
								{
OFFSET 0 0.000000 0.000000
CHANNELS 3 Zrotation Xrotation Yrotation
									End Site
									{
OFFSET 0 -0.597860 0.597860
									}
								}
							}
						}
					}
				}
			}
		}
	}
}
MOTION
Frames: 8
Frame Time: 0.008333333333333333
10.510908 16.733917 -4.987335 2.994323 -8.024460 -2.818912 0.000000 0.000000 0.000000 -24.655780 -12.059319 -24.257254 5.704829 14.135931 43.785008 0.576757 3.311234 -15.930993 0.164265 -2.608991 -7.192156 0.000000 0.000000 0.000000 19.446339 7.368774 6.105445 -10.678767 -17.769927 61.728261 -0.409518 -12.941866 13.627810 -3.001199 10.685099 -31.237597 -0.787164 1.301314 9.019893 -1.566348 1.591960 1.686706 -1.364524 0.790921 -3.281834 -2.923760 0.682251 -15.142224 0.384264 1.335877 -7.894383 0.663515 0.739117 -0.010427 0.000000 0.000000 0.000000 -3.043996 11.851313 -5.111309 10.892263 -18.122165 1.742923 25.546460 -9.694720 -20.412317 0.000000 0.000000 0.000000 -7.125000 0.000000 0.000000 -3.049743 52.368984 0.553587 0.000000 0.000000 0.000000 -7.218635 -7.799066 42.175555 -36.661406 -45.951950 -15.999615 -34.053233 -34.099824 -19.376654 0.000000 0.000000 0.000000 7.125000 0.000000 0.000000 -3.659317 7.018339 -3.191296
10.515291 16.755115 -4.871448 3.200624 -8.005879 -2.816909 0.000000 0.000000 0.000000 -25.073414 -11.936490 -23.724512 5.658753 14.089117 43.595933 0.600382 3.309302 -16.211143 0.170086 -2.656580 -7.324130 0.000000 0.000000 0.000000 19.155475 7.679617 5.068945 -11.051205 -17.956907 62.943929 -0.279746 -13.281660 12.476693 -2.707832 10.193353 -29.617067 -0.949103 1.275517 9.009750 -1.626520 1.539988 1.674467 -1.329771 0.766408 -3.292406 -2.970038 0.713969 -15.119628 0.473918 1.386208 -7.846405 0.701772 0.766099 0.000228 0.000000 0.000000 0.000000 -3.022525 11.567843 -5.658570 11.117655 -18.467894 1.813404 25.623727 -10.174008 -20.156396 0.000000 0.000000 0.000000 -7.125000 0.000000 0.000000 -2.908801 52.107316 0.512275 0.000000 0.000000 0.000000 -6.914409 -7.609388 42.062491 -35.572295 -45.204276 -15.222190 -33.975183 -33.943933 -19.507128 0.000000 0.000000 0.000000 7.125000 0.000000 0.000000 -3.589332 6.886212 -3.139364
10.519952 16.777724 -4.754780 3.343273 -7.952131 -2.828114 0.000000 0.000000 0.000000 -25.432689 -11.826416 -23.139486 5.609022 14.038294 43.391355 0.625570 3.295270 -16.496838 0.167211 -2.634367 -7.262350 0.000000 0.000000 0.000000 18.935724 7.955494 4.077342 -11.401308 -18.122711 64.074215 -0.155343 -13.589766 11.316955 -2.424120 9.684288 -27.972312 -1.030071 1.232628 9.005783 -1.668467 1.473646 1.663212 -1.320152 0.734080 -3.303810 -2.870030 0.748082 -15.147146 0.389330 1.415313 -7.756908 0.660420 0.776065 0.033647 0.000000 0.000000 0.000000 -3.014641 11.289238 -6.165850 11.315291 -18.769356 1.876473 25.801778 -10.662446 -19.639894 0.000000 0.000000 0.000000 -7.125000 0.000000 0.000000 -2.601835 51.583327 0.425158 0.000000 0.000000 0.000000 -6.598914 -7.430147 41.888952 -34.457926 -44.408227 -14.436949 -33.928972 -33.687888 -19.613781 0.000000 0.000000 0.000000 7.125000 0.000000 0.000000 -3.543220 6.774354 -3.106541
10.523177 16.798051 -4.639619 3.372110 -7.863357 -2.854950 0.000000 0.000000 0.000000 -25.668196 -11.719050 -22.522612 5.557901 13.985636 43.180233 0.656502 3.230135 -16.812287 0.161651 -2.589957 -7.139086 0.000000 0.000000 0.000000 18.848406 8.110734 3.136890 -11.722128 -18.268766 65.103093 -0.055633 -13.790746 10.325429 -2.281997 9.430153 -27.150441 -1.012598 1.164928 9.032606 -1.671316 1.384872 1.670741 -1.323080 0.689818 -3.311848 -2.724214 0.775957 -15.247707 0.216187 1.429894 -7.604256 0.584183 0.775651 0.100091 0.000000 0.000000 0.000000 -2.986396 10.972429 -6.775267 11.509679 -19.064745 1.939424 26.017539 -11.196033 -19.176308 0.000000 0.000000 0.000000 -7.125000 0.000000 0.000000 -2.275684 51.121128 0.345762 0.000000 0.000000 0.000000 -6.313974 -7.259968 41.711529 -33.399250 -43.624442 -13.700341 -33.877277 -33.388084 -19.671495 0.000000 0.000000 0.000000 7.125000 0.000000 0.000000 -3.501487 6.719955 -3.073576
10.524813 16.815851 -4.526124 3.275027 -7.735831 -2.899078 0.000000 0.000000 0.000000 -25.766766 -11.614678 -21.870501 5.505245 13.930947 42.961871 0.693788 3.108459 -17.160654 0.153123 -2.520987 -6.947796 0.000000 0.000000 0.000000 18.907608 8.132501 2.253030 -12.010550 -18.392970 66.019777 0.016758 -13.873202 9.520008 -2.296525 9.458068 -27.238996 -0.886212 1.069779 9.093494 -1.630906 1.271278 1.699053 -1.339888 0.632352 -3.316162 -2.527718 0.796931 -15.429080 -0.054930 1.428406 -7.381729 0.469350 0.763751 0.203074 0.000000 0.000000 0.000000 -2.935623 10.613351 -7.497686 11.700473 -19.353416 2.002245 26.275022 -11.779571 -18.771267 0.000000 0.000000 0.000000 -7.125000 0.000000 0.000000 -1.928308 50.727293 0.274909 0.000000 0.000000 0.000000 -6.062838 -7.099816 41.529808 -32.402192 -42.854225 -13.017539 -33.819513 -33.039865 -19.675065 0.000000 0.000000 0.000000 7.125000 0.000000 0.000000 -3.464597 6.729128 -3.040455
10.525700 16.832629 -4.413651 3.118413 -7.587529 -2.920094 0.000000 0.000000 0.000000 -25.786438 -11.517663 -21.244614 5.449069 13.872102 42.727934 0.735501 2.927956 -17.517195 0.135127 -2.358135 -6.496925 0.000000 0.000000 0.000000 19.034015 8.114489 1.341311 -12.275337 -18.503370 66.857517 0.088740 -13.982176 8.704280 -2.364612 9.584497 -27.643733 -0.696617 0.983621 9.144414 -1.579439 1.176438 1.718759 -1.382852 0.583604 -3.322837 -2.391298 0.807732 -15.542385 -0.253462 1.422469 -7.195212 0.386280 0.752555 0.283171 0.000000 0.000000 0.000000 -2.846230 10.233068 -8.276117 11.917581 -19.680184 2.074966 26.451268 -12.273813 -18.493168 0.000000 0.000000 0.000000 -7.125000 0.000000 0.000000 -1.691458 50.456358 0.227736 0.000000 0.000000 0.000000 -5.824348 -6.865080 41.319821 -31.481990 -42.123015 -12.394540 -33.767266 -32.868038 -19.704541 0.000000 0.000000 0.000000 7.125000 0.000000 0.000000 -3.427072 6.707377 -3.008809
10.525700 16.848198 -4.302388 2.891325 -7.414635 -2.913747 0.000000 0.000000 0.000000 -25.712709 -11.429357 -20.649771 5.388727 13.808339 42.475558 0.782456 2.677811 -17.883413 0.105923 -2.084141 -5.738757 0.000000 0.000000 0.000000 19.239981 8.049387 0.396613 -12.512143 -18.597429 67.601802 0.160238 -14.122545 7.876349 -2.496106 9.827552 -28.422776 -0.432193 0.908107 9.183535 -1.514882 1.103799 1.728279 -1.456780 0.545177 -3.332307 -2.325998 0.806493 -15.575110 -0.366064 1.411263 -7.051323 0.340813 0.742192 0.336175 0.000000 0.000000 0.000000 -2.711118 9.827680 -9.120856 12.165842 -20.052054 2.159405 26.531344 -12.662342 -18.365344 0.000000 0.000000 0.000000 -7.125000 0.000000 0.000000 -1.585450 50.330914 0.208597 0.000000 0.000000 0.000000 -5.600830 -6.542049 41.076370 -30.652770 -41.437981 -11.842338 -33.721551 -32.905026 -19.764684 0.000000 0.000000 0.000000 7.125000 0.000000 0.000000 -3.388794 6.649018 -2.978911
10.525613 16.870984 -4.189528 2.709332 -7.278066 -2.914005 0.000000 0.000000 0.000000 -25.671784 -11.319530 -20.058668 5.321867 13.736987 42.194599 0.818804 2.453102 -18.149510 0.077419 -1.768682 -4.867435 0.000000 0.000000 0.000000 19.413842 8.139036 -0.556570 -12.736113 -18.683876 68.303069 0.252403 -14.412109 6.848529 -2.460229 9.754762 -28.194780 -0.207899 0.857655 9.208593 -1.469330 1.060094 1.737537 -1.530992 0.521491 -3.334123 -2.310714 0.828085 -15.476353 -0.389875 1.434874 -7.034541 0.331124 0.753349 0.325647 0.000000 0.000000 0.000000 -2.563189 9.436683 -9.935896 12.452724 -20.478751 2.259109 26.599654 -13.040921 -18.282528 0.000000 0.000000 0.000000 -7.125000 0.000000 0.000000 -1.500459 50.252424 0.194270 0.000000 0.000000 0.000000 -5.355791 -6.183261 40.787715 -29.840652 -40.749645 -11.307916 -33.712577 -32.914896 -19.750296 0.000000 0.000000 0.000000 7.125000 0.000000 0.000000 -3.385443 6.667575 -2.974710
